<?xml version="1.0" encoding="UTF-8" standalone="no"?>
<!-- Created with Inkscape (http://www.inkscape.org/) -->

<svg
   version="1.1"
   id="svg1"
   width="76"
   height="76"
   viewBox="0 0 76 76"
   sodipodi:docname="p_M4_mako_mini.svg"
   inkscape:version="1.3.2 (091e20e, 2023-11-25, custom)"
   xmlns:inkscape="http://www.inkscape.org/namespaces/inkscape"
   xmlns:sodipodi="http://sodipodi.sourceforge.net/DTD/sodipodi-0.dtd"
   xmlns="http://www.w3.org/2000/svg"
   xmlns:svg="http://www.w3.org/2000/svg">
  <defs
     id="defs1" />
  <sodipodi:namedview
     id="namedview1"
     pagecolor="#ffffff"
     bordercolor="#000000"
     borderopacity="0.25"
     inkscape:showpageshadow="2"
     inkscape:pageopacity="0.0"
     inkscape:pagecheckerboard="0"
     inkscape:deskcolor="#d1d1d1"
     inkscape:zoom="24.092105"
     inkscape:cx="37.979246"
     inkscape:cy="38"
     inkscape:window-width="3840"
     inkscape:window-height="2066"
     inkscape:window-x="-11"
     inkscape:window-y="-11"
     inkscape:window-maximized="1"
     inkscape:current-layer="g1">
    <inkscape:page
       x="0"
       y="0"
       inkscape:label="1"
       id="page1"
       width="76"
       height="76"
       margin="0"
       bleed="0" />
  </sodipodi:namedview>
  <g
     id="g1"
     inkscape:groupmode="layer"
     inkscape:label="1">
    <path
       id="path1"
       d="m 6.3271482,-9.7625e-4 c -0.4863281,0 -0.9023438,-0.16992187 -1.2539063,-0.515625 C 4.7216794,-0.86816375 4.5458982,-1.2900387 4.5458982,-1.7822262 V -33.786132 c 0,-0.515625 0.1757812,-0.9375 0.5273437,-1.265625 0.3515625,-0.333985 0.7675782,-0.503907 1.2539063,-0.503907 0.7265625,0 1.2568359,0.304688 1.59375,0.914063 L 23.260742,-4.1494137 H 21.713867 L 36.784179,-34.641601 c 0.366211,-0.609375 0.896485,-0.914063 1.59375,-0.914063 0.483399,0 0.893555,0.169922 1.230469,0.503907 0.333985,0.328125 0.503906,0.75 0.503906,1.265625 v 32.0039058 c 0,0.4921875 -0.169921,0.91406245 -0.503906,1.26562495 -0.336914,0.34570313 -0.74707,0.515625 -1.230469,0.515625 -0.515625,0 -0.949218,-0.16992187 -1.300781,-0.515625 -0.345703,-0.3515625 -0.515625,-0.77343745 -0.515625,-1.26562495 V -29.180664 l 0.773438,0.04687 -13.429688,27.4453128 c -0.336914,0.5800781 -0.852539,0.86718745 -1.546875,0.86718745 -0.767578,0 -1.3125,-0.36328125 -1.640625,-1.08984375 L 7.1943357,-28.958007 8.1083982,-29.180664 v 27.3984378 c 0,0.4921875 -0.1757813,0.91406245 -0.5273438,1.26562495 -0.3515625,0.34570313 -0.7705078,0.515625 -1.2539062,0.515625 z m 0,0"
       style="fill:#0b0405;fill-opacity:1;fill-rule:nonzero;stroke:none"
       aria-label="M"
       transform="matrix(1.3333333,0,0,1.3333333,4.1614587,62.454427)" />
    <path
       id="path2"
       d="m 6.328125,-9.7625e-4 c -0.4863281,0 -0.9023438,-0.16992187 -1.2539063,-0.515625 C 4.7226562,-0.86816375 4.546875,-1.2900387 4.546875,-1.7822262 V -33.786132 c 0,-0.515625 0.1757812,-0.9375 0.5273437,-1.265625 0.3515625,-0.333985 0.7675782,-0.503907 1.2539063,-0.503907 0.7265625,0 1.2568359,0.304688 1.59375,0.914063 L 23.261719,-4.1494137 H 21.714844 L 36.785156,-34.641601 c 0.366211,-0.609375 0.896485,-0.914063 1.59375,-0.914063 0.483399,0 0.893555,0.169922 1.230469,0.503907 0.333984,0.328125 0.503906,0.75 0.503906,1.265625 v 32.0039058 c 0,0.4921875 -0.169922,0.91406245 -0.503906,1.26562495 -0.336914,0.34570313 -0.74707,0.515625 -1.230469,0.515625 -0.515625,0 -0.949219,-0.16992187 -1.300781,-0.515625 C 36.732422,-0.86816375 36.5625,-1.2900387 36.5625,-1.7822262 V -29.180664 l 0.773437,0.04687 -13.429687,27.4453128 c -0.336914,0.5800781 -0.852539,0.86718745 -1.546875,0.86718745 -0.767578,0 -1.3125,-0.36328125 -1.640625,-1.08984375 L 7.1953125,-28.958007 8.109375,-29.180664 v 27.3984378 c 0,0.4921875 -0.1757813,0.91406245 -0.5273438,1.26562495 -0.3515625,0.34570313 -0.7705078,0.515625 -1.2539062,0.515625 z m 0,0"
       style="fill:#40498e;fill-opacity:1;fill-rule:nonzero;stroke:none"
       aria-label="M"
       transform="matrix(1.3333333,0,0,1.3333333,8,62.454427)" />
    <path
       id="path3"
       d="m 6.3291018,-9.7625e-4 c -0.4863281,0 -0.9023437,-0.16992187 -1.2539062,-0.515625 C 4.7236331,-0.86816375 4.5478518,-1.2900387 4.5478518,-1.7822262 V -33.786132 c 0,-0.515625 0.1757813,-0.9375 0.5273438,-1.265625 0.3515625,-0.333985 0.7675781,-0.503907 1.2539062,-0.503907 0.7265625,0 1.2568359,0.304688 1.59375,0.914063 L 23.262696,-4.1494137 H 21.715821 L 36.786133,-34.641601 c 0.366211,-0.609375 0.896484,-0.914063 1.59375,-0.914063 0.483398,0 0.893555,0.169922 1.230469,0.503907 0.333984,0.328125 0.503906,0.75 0.503906,1.265625 v 32.0039058 c 0,0.4921875 -0.169922,0.91406245 -0.503906,1.26562495 -0.336914,0.34570313 -0.747071,0.515625 -1.230469,0.515625 -0.515625,0 -0.949219,-0.16992187 -1.300781,-0.515625 -0.345703,-0.3515625 -0.515625,-0.77343745 -0.515625,-1.26562495 V -29.180664 l 0.773437,0.04687 -13.429687,27.4453128 c -0.336914,0.5800781 -0.852539,0.86718745 -1.546875,0.86718745 -0.767578,0 -1.3125,-0.36328125 -1.640625,-1.08984375 L 7.1962893,-28.958007 8.1103518,-29.180664 v 27.3984378 c 0,0.4921875 -0.1757812,0.91406245 -0.5273437,1.26562495 -0.3515625,0.34570313 -0.7705079,0.515625 -1.2539063,0.515625 z m 0,0"
       style="fill:#38aaac;fill-opacity:1;fill-rule:nonzero;stroke:none"
       aria-label="M"
       transform="matrix(1.3333333,0,0,1.3333333,11.838541,62.454427)" />
    <path
       id="path4"
       d="m 6.3271489,-9.7625e-4 c -0.4863281,0 -0.9023437,-0.16992187 -1.2539062,-0.515625 C 4.7216802,-0.86816375 4.5458989,-1.2900387 4.5458989,-1.7822262 V -33.786132 c 0,-0.515625 0.1757813,-0.9375 0.5273438,-1.265625 0.3515625,-0.333985 0.7675781,-0.503907 1.2539062,-0.503907 0.7265625,0 1.256836,0.304688 1.59375,0.914063 L 23.260743,-4.1494137 H 21.713868 L 36.78418,-34.641601 c 0.366211,-0.609375 0.896485,-0.914063 1.59375,-0.914063 0.483399,0 0.893555,0.169922 1.230469,0.503907 0.333984,0.328125 0.503906,0.75 0.503906,1.265625 v 32.0039058 c 0,0.4921875 -0.169922,0.91406245 -0.503906,1.26562495 -0.336914,0.34570313 -0.74707,0.515625 -1.230469,0.515625 -0.515625,0 -0.949219,-0.16992187 -1.300781,-0.515625 -0.345703,-0.3515625 -0.515625,-0.77343745 -0.515625,-1.26562495 V -29.180664 l 0.773437,0.04687 -13.429687,27.4453128 c -0.336914,0.5800781 -0.852539,0.86718745 -1.546875,0.86718745 -0.767578,0 -1.3125,-0.36328125 -1.640625,-1.08984375 L 7.1943364,-28.958007 8.1083989,-29.180664 v 27.3984378 c 0,0.4921875 -0.1757812,0.91406245 -0.5273437,1.26562495 -0.3515625,0.34570313 -0.7705078,0.515625 -1.2539063,0.515625 z m 0,0"
       style="fill:#def5e5;fill-opacity:1;fill-rule:nonzero;stroke:none"
       aria-label="M"
       transform="matrix(1.3333333,0,0,1.3333333,15.677083,62.454427)" />
  </g>
</svg>
